<svg width="55" height="91" viewBox="0 0 55 91" fill="none" xmlns="http://www.w3.org/2000/svg">
<path d="M26.7667 0.313011C23.4667 1.36878 22.0367 3.39233 22 6.9409C22 9.52166 21.7433 9.81493 20.3133 8.93512C19.2867 8.31926 16.0233 8.37791 14.3 9.08176C13.53 9.40435 12.5033 10.0789 12.0267 10.6068C11.1833 11.5745 11.1833 11.5745 11.0733 22.6308L10.9633 33.687L9.60667 33.0418C8.47 32.514 7.55333 32.3673 4.14333 32.2793L0 32.1914V46.8548C0 59.5827 0.0733333 61.6649 0.586667 62.6327C1.61333 64.5976 2.31 65.7707 3.74 67.7649L5.13333 69.7005V73.8649V78H6.01333C6.49 78 7.00333 77.7947 7.11333 77.5308C7.22333 77.2668 7.33333 75.3899 7.33333 73.337V69.6125L6.01333 68.0288C4.25333 65.8293 3.37333 64.4216 2.34667 62.1635C1.46667 60.2572 1.46667 60.1986 1.46667 47.1481V34.0096H4.76667C7.92 34.0096 8.10333 34.039 9.35 34.9481C10.0833 35.4467 11.0733 36.4731 11.55 37.2063L12.43 38.5553L12.4667 25.8568C12.4667 11.8385 12.4667 11.8385 14.74 10.4308C16.3533 9.46301 18.15 9.43368 19.8367 10.3428C21.78 11.3986 22 11.9851 22 16.7654C22 21.1058 22.22 21.8096 23.2833 21.1058C23.76 20.8125 23.8333 19.4048 23.8333 12.8356C23.8333 4.06686 23.98 3.39233 26.1067 2.33657C28.4533 1.16349 29.9567 1.19282 31.6433 2.45387L32.6333 3.18705V10.812C32.6333 15.0058 32.7433 18.613 32.8533 18.8769C32.9633 19.1409 33.3667 19.3462 33.7333 19.3462C34.1 19.3462 34.5033 19.1409 34.6133 18.8769C34.7233 18.613 34.8333 16.3548 34.8333 13.8327C34.8333 9.90291 34.9433 9.14041 35.4933 8.61253C36.2633 7.85003 37.4733 7.32214 38.4633 7.32214C39.7467 7.32214 42.1667 8.23128 42.6433 8.90579C42.9367 9.31638 43.1567 11.6039 43.2667 15.5337C43.4133 20.6952 43.5233 21.5457 44.0367 21.6337C44.4033 21.6923 44.8067 21.3111 45.1733 20.5486C45.87 19.1702 47.1533 18.437 49.2433 18.2611C51.26 18.0851 53.1667 19.0529 53.6433 20.4899C53.79 21.0178 53.9 29.288 53.8267 38.8192C53.68 55.7115 53.6433 56.2101 52.8733 58.2923C51.8833 60.8731 50.82 62.6034 47.9967 66.2106L45.8333 68.938V72.8385C45.8333 76.7389 46.09 77.5308 47.1533 77.2082C47.5567 77.0909 47.6667 76.2111 47.6667 73.1904V69.3486L49.2433 67.4423C51.81 64.363 53.4233 61.8702 54.23 59.6414C54.9633 57.6178 55 56.9726 55 38.2914C55 25.0356 54.89 18.8183 54.5967 18.4077C53.6433 16.9707 49.28 16.2668 46.6767 17.1467C45.98 17.3813 45.32 17.5866 45.2833 17.5866C45.21 17.5866 45.1 15.6217 45.0267 13.2169L44.9167 8.81782L43.8167 7.90868C41.69 6.11974 39.0133 5.50388 36.41 6.23705L34.8333 6.67695V5.73849C34.7967 1.75003 30.7633 -0.948044 26.7667 0.313011Z" fill="#0054A7"/>
<path d="M30.3832 23.168C26.6465 23.7853 23.1663 25.9312 21.5178 28.6356C20.9317 29.6645 20.6386 30.7521 20.5287 32.4865C20.3455 35.2203 20.8584 36.7783 22.7267 38.9536L23.7891 40.2177H21.4079C16.6822 40.2177 12.3594 42.3636 10.3079 45.7441C9.39208 47.2139 9.28218 47.7431 9.28218 50.2123C9.28218 53.1813 9.75842 54.2984 11.9564 56.6207L12.8723 57.5907L11.4069 58.5902C10.601 59.1487 9.53861 60.2952 9.06238 61.1477C8.18317 62.7057 8.18317 62.7351 8.07327 74.905L8 87.1044L8.84257 88.2802C10.9307 91.2198 15.6931 91.896 19.2465 89.7206L20.4188 89.0151L21.7743 89.75C22.5436 90.1616 23.5327 90.5731 24.0089 90.6613C25.6941 91.0141 28.4416 90.6025 30.0168 89.7794L31.5188 88.9563L32.5079 89.6912C34.2663 91.0435 37.4535 91.308 39.8713 90.3086C41.0436 89.8382 42.5455 88.5448 43.3881 87.2514C44.0475 86.2813 44.0842 85.0467 44.1941 65.1161C44.304 41.8344 44.3772 42.7163 42.0327 41.3641L40.9703 40.7468L42.0693 39.6297C44.0475 37.6308 45 35.6025 45 33.3096C45 30.8109 44.5604 29.4293 43.1317 27.548C40.6406 24.3144 35.1089 22.4037 30.3832 23.168ZM35.2921 31.1931C36.6109 32.1925 38.3693 32.9568 40.4941 33.4566C41.9228 33.8093 42.0327 33.8975 41.8495 34.603C41.1535 36.9841 38.3693 39.3946 35.5119 40.1883C30.6396 41.4817 24.8881 38.7773 23.6059 34.5442C23.4228 33.9269 23.5327 33.6917 24.0089 33.5742C26.9762 32.7805 30.3099 30.8697 31.7386 29.106L32.2881 28.4005L33.2406 29.3999C33.7535 29.929 34.6693 30.7521 35.2921 31.1931ZM39.5416 43.1573C41.0069 43.804 41.3366 44.9504 41.3366 49.2717C41.3366 53.828 40.9337 55.2097 38.5525 58.7078C36.0614 62.3823 29.7604 66.6741 26.8663 66.6741C24.7782 66.6741 23.0564 65.3219 23.0198 63.6757C23.0198 62.0002 23.6426 61.2359 26.5 59.4721C32.2881 55.9152 33.6436 53.9162 33.6436 48.8895C33.6436 45.6559 33.9366 44.5977 35.1822 43.51C36.0248 42.8045 38.2594 42.6281 39.5416 43.1573ZM30.2 48.037C31.4455 51.5352 29.5406 55.0039 25.401 56.7677C23.4594 57.5907 19.3931 57.6495 17.5248 56.8558C13.4584 55.1509 11.4069 51.7703 12.396 48.4486C12.6525 47.6255 12.9089 46.9788 12.9822 46.9788C13.0921 46.9788 13.7881 47.3021 14.5574 47.6843C16.2059 48.5368 19.3564 49.3304 21.0416 49.3304C22.8366 49.3304 25.6208 48.5074 27.4158 47.4197C28.3317 46.8612 29.1743 46.4202 29.3208 46.4202C29.4673 46.3908 29.8703 47.1257 30.2 48.037ZM18.0376 60.8537C18.7703 61.3828 19.1 62.0589 19.503 63.7933C20.4188 67.703 21.5545 68.7025 26.0604 69.6431C27.7089 69.9665 28.9545 70.4074 29.3208 70.7896C30.9327 72.377 30.2733 75.052 28.1119 75.9633C26.5366 76.61 22.6168 76.3454 20.199 75.4342C16.499 74.0231 12.9089 70.0547 12.0297 66.3214C11.4436 63.8815 12.2495 61.2359 13.7515 60.5303C14.9238 59.9718 17.0485 60.1482 18.0376 60.8537ZM40.2743 86.2519C38.9188 88.7212 35.8782 89.0739 34.1198 86.9868C33.3139 86.0167 33.2772 85.811 33.2772 78.4913C33.2772 71.4069 33.2406 70.9072 32.4713 69.6725C31.7752 68.4673 31.7386 68.3497 32.3248 68.0851C33.6436 67.4972 37.3436 64.8516 39.0287 63.2936L40.7871 61.6474L40.897 73.2882C40.9703 84.3118 40.9337 85.0173 40.2743 86.2519ZM17.1584 77.2567L18.9901 78.1974V82.1071C18.9901 86.3989 18.697 87.0456 16.4257 87.9863C14.8139 88.6624 13.898 88.5154 12.5426 87.4278L11.297 86.4283V79.579V72.7591L13.3119 74.5229C14.4109 75.4929 16.1327 76.7276 17.1584 77.2567ZM29.9802 82.2246C29.9802 85.8698 29.9436 86.0755 29.0277 86.928C27.9653 87.9569 25.9871 88.3684 24.6317 87.8687C23.0564 87.3102 22.3238 85.9286 22.4703 83.9002C22.5436 82.9008 22.6168 81.4016 22.6168 80.5491L22.6535 79.0205L25.1446 78.9911C26.5 78.9911 27.9287 78.8735 28.3317 78.7265C29.9436 78.168 29.9802 78.2562 29.9802 82.2246Z" fill="#0054A7"/>
<path d="M26.5965 33.2899C25.4896 34.0831 26.0273 36 27.3555 36C28.3991 36 29 35.4712 29 34.5127C29 33.2899 27.6085 32.5628 26.5965 33.2899Z" fill="#0054A7"/>
<path d="M37.4 33.4C37.1667 33.6333 37 34.1 37 34.5C37 34.9 37.1667 35.3667 37.4 35.6C37.6333 35.8333 38.1 36 38.5 36C38.9 36 39.3667 35.8333 39.6 35.6C39.8333 35.3667 40 34.9 40 34.5C40 34.1 39.8333 33.6333 39.6 33.4C39.3667 33.1667 38.9 33 38.5 33C38.1 33 37.6333 33.1667 37.4 33.4Z" fill="#0054A7"/>
<path d="M26.5271 49.5824C25.5197 50.6904 26.0234 52 27.4674 52C28.9449 52 29.5829 49.9853 28.3404 49.3137C27.4338 48.8436 27.1651 48.8772 26.5271 49.5824Z" fill="#0054A7"/>
<path d="M15.5952 49.3317C14.8938 49.7329 14.7936 50.9699 15.3948 51.5717C16.33 52.5078 18 51.8057 18 50.4684C18 49.1311 16.831 48.5962 15.5952 49.3317Z" fill="#0054A7"/>
</svg>
